<svg version="1.2" xmlns="http://www.w3.org/2000/svg" viewBox="0 0 200 200" width="200" height="200">
	<title>blob (1)-svg</title>
	<style>
		.s0 { fill: #ff8533 } 
	</style>
	<path id="Layer" class="s0" d="m67.1 136.1c-12.9-0.3-28.9-5.6-36.7-16.6c-7.9-11-7.7-27.8 3.3-34.7c10.9-7 32.6-4.2 45.4-6.8c12.9-2.5 16.9-10.4 28-20.2c11.2-9.8 29.4-21.5 44.5-19.7c15.1 1.8 26.9 17.2 31.1 34.1c4.1 16.8 0.5 35.3-7.5 49.8c-8.1 14.6-20.5 25.3-33.8 25.5c-13.3 0.2-27.3-10.2-39.3-13c-12.1-2.9-22 1.9-35 1.6z"/>
</svg>